<svg width="8" height="14" viewBox="0 0 8 14" fill="none" xmlns="http://www.w3.org/2000/svg">
<path d="M0.766602 13.0665C0.599935 12.8998 0.516602 12.7025 0.516602 12.4745C0.516602 12.2469 0.599935 12.0498 0.766602 11.8832L5.64994 6.99984L0.749935 2.09984C0.594379 1.94428 0.516602 1.74984 0.516602 1.5165C0.516602 1.28317 0.599935 1.08317 0.766602 0.916504C0.933268 0.749837 1.1306 0.666504 1.3586 0.666504C1.58616 0.666504 1.78327 0.749837 1.94994 0.916504L7.54994 6.53317C7.6166 6.59984 7.66394 6.67206 7.69194 6.74984C7.71949 6.82762 7.73327 6.91095 7.73327 6.99984C7.73327 7.08873 7.71949 7.17206 7.69194 7.24984C7.66394 7.32762 7.6166 7.39984 7.54994 7.4665L1.93327 13.0832C1.77771 13.2387 1.58616 13.3165 1.3586 13.3165C1.1306 13.3165 0.933268 13.2332 0.766602 13.0665Z" fill="white"/>
</svg>
