<svg width="16" height="16" viewBox="0 0 16 16" fill="none" xmlns="http://www.w3.org/2000/svg">
<path d="M14.1828 7.97784C14.1828 6.24931 13.5806 4.78286 12.3763 3.5785C11.1725 2.37474 9.70637 1.77285 7.97784 1.77285V0C9.08587 0 10.1239 0.210379 11.0919 0.631136C12.0592 1.05248 12.9013 1.62157 13.6182 2.33839C14.3344 3.05463 14.9032 3.89673 15.3245 4.86471C15.7453 5.8321 15.9557 6.86981 15.9557 7.97784H14.1828ZM10.6371 7.97784C10.6371 7.23915 10.3786 6.61127 9.8615 6.09418C9.34441 5.5771 8.71653 5.31856 7.97784 5.31856V3.54571C9.20406 3.54571 10.2495 3.97769 11.114 4.84166C11.978 5.70622 12.41 6.75162 12.41 7.97784H10.6371ZM15.0249 16C13.1191 16 11.2615 15.5751 9.45197 14.7253C7.64188 13.8761 6.03893 12.7533 4.6431 11.3569C3.24669 9.96107 2.12388 8.35812 1.27468 6.54803C0.424894 4.73854 0 2.88089 0 0.975069C0 0.709141 0.0886426 0.487535 0.265928 0.310249C0.443213 0.132964 0.66482 0.0443213 0.930748 0.0443213H4.52078C4.72761 0.0443213 4.91228 0.110803 5.07479 0.243767C5.2373 0.376731 5.33333 0.54663 5.36288 0.753463L5.93906 3.85596C5.96861 4.06279 5.96506 4.25101 5.92842 4.42061C5.89119 4.5908 5.80609 4.74238 5.67313 4.87535L3.54571 7.04709C4.16621 8.1108 4.94183 9.10803 5.87258 10.0388C6.80332 10.9695 7.8301 11.7747 8.95291 12.4543L11.036 10.3712C11.169 10.2382 11.3427 10.1384 11.5572 10.0716C11.7712 10.0054 11.9815 9.98707 12.1884 10.0166L15.2465 10.6371C15.4534 10.6814 15.6233 10.781 15.7562 10.9358C15.8892 11.0913 15.9557 11.2724 15.9557 11.4792V15.0693C15.9557 15.3352 15.867 15.5568 15.6898 15.7341C15.5125 15.9114 15.2909 16 15.0249 16Z" fill="black"/>
</svg>
