<svg width="60" height="55" viewBox="0 0 60 55" fill="none" xmlns="http://www.w3.org/2000/svg">
<path d="M21.7237 1.75C22.427 1.04699 23.3806 0.652054 24.375 0.652054C25.3694 0.652054 26.323 1.04699 27.0262 1.75L29.4525 4.1725C29.8046 4.52458 30.0024 5.00209 30.0024 5.5C30.0024 5.99791 29.8046 6.47543 29.4525 6.8275C29.1004 7.17958 28.6229 7.37737 28.125 7.37737C27.6271 7.37737 27.1496 7.17958 26.7975 6.8275L24.375 4.40125L7.49999 21.2763V44.875C7.49999 45.3723 7.69753 45.8492 8.04916 46.2008C8.40079 46.5525 8.87771 46.75 9.37499 46.75C9.87227 46.75 10.3492 46.9475 10.7008 47.2992C11.0524 47.6508 11.25 48.1277 11.25 48.625C11.25 49.1223 11.0524 49.5992 10.7008 49.9508C10.3492 50.3025 9.87227 50.5 9.37499 50.5C7.88315 50.5 6.4524 49.9074 5.39751 48.8525C4.34262 47.7976 3.74999 46.3668 3.74999 44.875V25.0263L3.20249 25.5775C2.85041 25.9296 2.3729 26.1274 1.87499 26.1274C1.37708 26.1274 0.899563 25.9296 0.547488 25.5775C0.195413 25.2254 -0.00238036 24.7479 -0.00238037 24.25C-0.00238038 23.7521 0.195413 23.2746 0.547488 22.9225L21.7237 1.75ZM32.9737 5.5C33.677 4.79699 34.6306 4.40205 35.625 4.40205C36.6194 4.40205 37.573 4.79699 38.2762 5.5L45 12.2238V7.375C45 6.87772 45.1975 6.40081 45.5492 6.04918C45.9008 5.69755 46.3777 5.5 46.875 5.5H50.625C51.1223 5.5 51.5992 5.69755 51.9508 6.04918C52.3024 6.40081 52.5 6.87772 52.5 7.375V19.7238L59.4525 26.6725C59.8046 27.0246 60.0024 27.5021 60.0024 28C60.0024 28.4979 59.8046 28.9754 59.4525 29.3275C59.1004 29.6796 58.6229 29.8774 58.125 29.8774C57.6271 29.8774 57.1496 29.6796 56.7975 29.3275L56.25 28.7763V48.625C56.25 50.1168 55.6574 51.5476 54.6025 52.6025C53.5476 53.6574 52.1168 54.25 50.625 54.25H20.625C19.1331 54.25 17.7024 53.6574 16.6475 52.6025C15.5926 51.5476 15 50.1168 15 48.625V28.7763L14.4525 29.3275C14.2782 29.5018 14.0712 29.6401 13.8434 29.7345C13.6157 29.8288 13.3715 29.8774 13.125 29.8774C12.8784 29.8774 12.6343 29.8288 12.4066 29.7345C12.1788 29.6401 11.9718 29.5018 11.7975 29.3275C11.6232 29.1532 11.4849 28.9462 11.3905 28.7184C11.2962 28.4907 11.2476 28.2465 11.2476 28C11.2476 27.7535 11.2962 27.5093 11.3905 27.2816C11.4849 27.0538 11.6232 26.8468 11.7975 26.6725L32.9737 5.5ZM35.625 8.15125L18.75 25.0263V48.625C18.75 49.1223 18.9475 49.5992 19.2992 49.9508C19.6508 50.3025 20.1277 50.5 20.625 50.5H50.625C51.1223 50.5 51.5992 50.3025 51.9508 49.9508C52.3024 49.5992 52.5 49.1223 52.5 48.625V25.0263L35.625 8.15125Z" fill="#000"/>
</svg>
