<svg width="174" height="66" viewBox="0 0 174 66" fill="none" xmlns="http://www.w3.org/2000/svg">
<path fill-rule="evenodd" clip-rule="evenodd" d="M34.0388 11.8896C32.551 14.9046 32.4317 13.7568 31.918 15.1636C36.7181 17.2876 30.8565 14.5028 36.1874 19.9136C35.4445 20.6948 34.7475 20.8707 33.945 21.4995C30.1456 24.4761 29.2568 26.8133 28.0994 27.7501L27.7893 18.6028L8.38515 19.012L8.75283 38.3607L25.1888 38.7572C18.3115 42.3541 18.2647 46.5819 15.8401 51.5568L15.3083 52.419C12.2112 51.4343 9.45943 50.4197 6 52.1995C6.28029 52.6546 6.02664 52.37 6.55206 52.8794L11.8819 56.8984C13.3526 58.0185 16.5275 60.7692 18.1123 61.3553C19.4796 54.3161 24.77 46.3624 31.8476 44.9907C34.155 51.7433 39.5317 52.1878 46.7138 53.3761C47.2008 54.5143 44.7677 59.3134 48.4819 61.999C49.31 60.004 50.6848 57.7179 51.7356 55.5907C52.5072 54.0304 54.6781 50.2428 55 48.7454C48.4733 49.3497 43.1755 47.1286 40.1541 43.8664C36.7703 40.214 37.9022 32.8124 39.4432 27.7277C42.698 16.9935 42.3208 22.043 45.0203 18.526C45.7749 17.5434 46.2736 16.3071 46.3237 14.8066C46.4303 11.6413 44.6356 9.60251 42.5968 8.69342C38.353 6.80172 36.992 9.2636 34.5664 10.3475L30.4835 8.34599C30.9791 10.4647 32.7855 10.6981 34.0399 11.8864L34.0388 11.8896Z" fill="#046425"/>
<path fill-rule="evenodd" clip-rule="evenodd" d="M16.8642 29.447C16.7438 29.4278 11.4662 27.6278 12.4477 29.8531L13.8023 31.1703C12.1909 31.2396 11.9735 31.0371 11.2605 32.0719C11.8413 33.2805 12.3156 33.1153 13.716 33.256L13.3515 33.6429C13.3121 33.6972 13.1117 33.9477 13.0723 34.0201C12.8026 34.5178 12.8474 34.1544 12.8858 34.7619C14.3192 35.8799 16.4859 35.5303 18.2849 34.9314C20.362 34.2386 39.5039 35.6188 33.0498 29.5088C32.4444 28.9354 31.6792 28.0647 30.9108 27.5755C27.8457 30.1461 25.3433 30.7568 19.8696 31.1501C19.7588 30.2879 19.6767 29.4172 19.3666 28.571C18.8518 27.1642 18.4927 27.2931 17.2212 27.3091L16.8642 29.4449V29.447Z" fill="white"/>
<circle cx="35.7501" cy="13.2501" r="0.583333" fill="white"/>
<path fill-rule="evenodd" clip-rule="evenodd" d="M41 44.3539V44.3562L41.0131 44.3017L41 44.3539ZM154.952 58.0002C156.733 57.9381 158.183 57.843 158.725 57.7135C160.705 57.2408 162.06 56.4066 163.378 54.9009C164.102 54.0737 164.323 53.9288 164.959 52.5838C165.38 51.6931 165.652 50.4053 166 49.6727V33.5962C165.597 32.627 165.52 31.0155 163.647 29.8307C161.984 28.7785 160.943 28.7893 158.839 28.7894H124.724C123.989 28.7894 122.645 28.9143 122.044 28.5921C121.53 28.3166 121.112 27.5169 121.028 26.5675C120.592 21.6384 121.996 13.1072 119.673 8.92994C118.685 7.15146 118.034 6.99981 115.609 7.00025L98.6823 7.00051C88.594 6.98929 84.2019 8.22761 76.8515 14.5479L72.2907 19.0701C71.2713 20.3372 71.3981 19.9483 70.8063 20.6162C70.2806 21.2094 69.8298 21.6338 69.2773 22.1126C68.7196 22.5957 68.3337 22.9814 67.7582 23.4719C65.7896 25.1494 63.3527 26.9454 60.597 28.2887C55.4903 30.7781 53.2546 29.0144 47.5831 32.8184C45.1031 34.4817 43.396 36.3672 42.1339 39.4164C41.1687 41.7483 41.3494 42.8053 41.0502 44.1449C41.3257 42.9602 41.446 42.0806 42.33 39.9144C43.555 36.9122 45.962 35.1608 48.3691 33.5232C53.874 29.7779 56.8878 31.5145 61.8446 29.0633C64.5193 27.7407 66.8846 25.9724 68.7954 24.3207C69.3541 23.8378 69.7285 23.4581 70.2698 22.9824C70.8062 22.5111 71.2437 22.0932 71.754 21.5091C72.3284 20.8516 72.2053 21.2344 73.1948 19.9869L77.6217 15.5343C84.7561 9.31141 89.0192 7.77701 98.8112 7.78805L114.866 7.78779C117.219 7.78736 117.851 7.93666 118.811 9.68775C121.065 13.8006 119.702 22.9359 120.125 27.789C120.207 28.7238 120.613 29.5111 121.112 29.7823C121.695 30.0995 123 29.9766 123.713 29.9766H157.2C159.243 29.9765 160.253 29.9659 161.868 31.0018C163.686 32.1684 163.76 33.755 164.151 34.7092V49.8024C163.814 50.5237 163.549 51.7917 163.141 52.6686C162.523 53.9929 162.309 54.1355 161.606 54.95C160.327 56.4326 159.012 57.2538 157.091 57.7193C156.682 57.8182 155.947 57.9116 154.953 58.0002H154.952Z" fill="#046425"/>
<path d="M91.05 29.207C89.7313 29.207 88.5507 28.9617 87.508 28.471C86.4807 27.965 85.6757 27.2673 85.093 26.378C84.5257 25.4887 84.242 24.4767 84.242 23.342V18.512C84.242 17.3773 84.5257 16.373 85.093 15.499C85.6603 14.6097 86.45 13.9197 87.462 13.429C88.474 12.9383 89.6317 12.693 90.935 12.693C92.2383 12.693 93.396 12.9 94.408 13.314C95.4353 13.7127 96.2327 14.2723 96.8 14.993C97.3673 15.7137 97.651 16.534 97.651 17.454C97.651 17.9447 97.4823 18.3357 97.145 18.627C96.823 18.903 96.386 19.041 95.834 19.041C95.6347 19.041 95.42 19.018 95.19 18.972C95.2207 18.7267 95.236 18.4123 95.236 18.029C95.236 17.4003 95.052 16.8483 94.684 16.373C94.316 15.8823 93.8023 15.5067 93.143 15.246C92.499 14.97 91.763 14.832 90.935 14.832C89.693 14.832 88.6733 15.177 87.876 15.867C87.094 16.5417 86.703 17.4233 86.703 18.512V23.342C86.703 24.0627 86.887 24.7067 87.255 25.274C87.623 25.8413 88.1367 26.286 88.796 26.608C89.4553 26.9147 90.2067 27.068 91.05 27.068C92.3073 27.068 93.327 26.769 94.109 26.171C94.9063 25.5577 95.305 24.7603 95.305 23.779V22.698H92.706C92.2 22.698 91.786 22.514 91.464 22.146C91.142 21.7627 90.981 21.272 90.981 20.674H96.593C96.9303 20.674 97.2063 20.7813 97.421 20.996C97.651 21.2107 97.766 21.4867 97.766 21.824V23.825C97.766 24.8677 97.4823 25.803 96.915 26.631C96.3477 27.4437 95.5503 28.08 94.523 28.54C93.511 28.9847 92.3533 29.207 91.05 29.207ZM106.607 29.207C105.334 29.207 104.184 28.9617 103.157 28.471C102.145 27.965 101.347 27.275 100.765 26.401C100.197 25.527 99.9138 24.561 99.9138 23.503V18.351C99.9138 17.293 100.197 16.3347 100.765 15.476C101.347 14.6173 102.145 13.9427 103.157 13.452C104.184 12.946 105.334 12.693 106.607 12.693C107.879 12.693 109.022 12.946 110.034 13.452C111.061 13.9427 111.866 14.6173 112.449 15.476C113.031 16.3347 113.323 17.293 113.323 18.351V23.503C113.323 24.561 113.031 25.527 112.449 26.401C111.866 27.275 111.061 27.965 110.034 28.471C109.022 28.9617 107.879 29.207 106.607 29.207ZM106.607 27.045C107.941 27.045 108.983 26.723 109.735 26.079C110.501 25.435 110.885 24.5687 110.885 23.48V18.397C110.885 17.3083 110.501 16.442 109.735 15.798C108.983 15.154 107.941 14.832 106.607 14.832C105.273 14.832 104.222 15.154 103.456 15.798C102.704 16.442 102.329 17.3083 102.329 18.397V23.48C102.329 24.5687 102.704 25.435 103.456 26.079C104.222 26.723 105.273 27.045 106.607 27.045Z" fill="url(#paint0_linear_22_17)"/>
<path d="M69.75 54.225C68.3167 54.225 67.0333 53.9583 65.9 53.425C64.7833 52.875 63.9083 52.1167 63.275 51.15C62.6583 50.1833 62.35 49.0833 62.35 47.85V42.6C62.35 41.3667 62.6583 40.275 63.275 39.325C63.8917 38.3583 64.75 37.6083 65.85 37.075C66.95 36.5417 68.2083 36.275 69.625 36.275C71.0417 36.275 72.3 36.5 73.4 36.95C74.5167 37.3833 75.3833 37.9917 76 38.775C76.6167 39.5583 76.925 40.45 76.925 41.45C76.925 41.9833 76.7417 42.4083 76.375 42.725C76.025 43.025 75.55 43.175 74.95 43.175C74.7333 43.175 74.5 43.15 74.25 43.1C74.2833 42.8333 74.3 42.4917 74.3 42.075C74.3 41.3917 74.1 40.7917 73.7 40.275C73.3 39.7417 72.7417 39.3333 72.025 39.05C71.325 38.75 70.525 38.6 69.625 38.6C68.275 38.6 67.1667 38.975 66.3 39.725C65.45 40.4583 65.025 41.4167 65.025 42.6V47.85C65.025 48.6333 65.225 49.3333 65.625 49.95C66.025 50.5667 66.5833 51.05 67.3 51.4C68.0167 51.7333 68.8333 51.9 69.75 51.9C71.1167 51.9 72.225 51.575 73.075 50.925C73.9417 50.2583 74.375 49.3917 74.375 48.325V47.15H71.55C71 47.15 70.55 46.95 70.2 46.55C69.85 46.1333 69.675 45.6 69.675 44.95H75.775C76.1417 44.95 76.4417 45.0667 76.675 45.3C76.925 45.5333 77.05 45.8333 77.05 46.2V48.375C77.05 49.5083 76.7417 50.525 76.125 51.425C75.5083 52.3083 74.6417 53 73.525 53.5C72.425 53.9833 71.1667 54.225 69.75 54.225ZM82.2096 37.75C82.2096 37.3833 82.3346 37.0833 82.5846 36.85C82.8512 36.6167 83.1846 36.5 83.5846 36.5H90.4096C92.0762 36.5 93.3929 36.975 94.3596 37.925C95.3429 38.8583 95.8346 40.1333 95.8346 41.75C95.8346 43.7167 94.9929 45.1 93.3096 45.9V45.975C94.0429 46.3083 94.6012 46.7917 94.9846 47.425C95.3846 48.0583 95.5846 48.825 95.5846 49.725V52.1C95.5846 52.7833 95.3512 53.3083 94.8846 53.675C94.4346 54.0417 93.7762 54.225 92.9096 54.225V49.875C92.9096 47.975 92.0846 47.025 90.4346 47.025H84.8596V52.1C84.8596 53.5167 83.9762 54.225 82.2096 54.225V37.75ZM90.2846 44.725C91.1679 44.725 91.8596 44.4583 92.3596 43.925C92.8762 43.3917 93.1346 42.6583 93.1346 41.725C93.1346 40.775 92.8929 40.0583 92.4096 39.575C91.9262 39.075 91.2179 38.825 90.2846 38.825H84.8596V44.725H90.2846ZM101.134 37.75C101.134 37.4 101.268 37.1083 101.534 36.875C101.801 36.625 102.126 36.5 102.509 36.5H113.609C113.609 37.3 113.451 37.8917 113.134 38.275C112.834 38.6417 112.359 38.825 111.709 38.825H103.834V44H110.709C110.709 44.8 110.559 45.3917 110.259 45.775C109.959 46.1417 109.484 46.325 108.834 46.325H103.834V51.675H112.234C112.868 51.675 113.334 51.8667 113.634 52.25C113.951 52.6167 114.109 53.2 114.109 54H102.509C102.126 54 101.801 53.8833 101.534 53.65C101.268 53.4 101.134 53.1 101.134 52.75V37.75ZM119.058 37.75C119.058 37.4 119.192 37.1083 119.458 36.875C119.725 36.625 120.05 36.5 120.433 36.5H131.533C131.533 37.3 131.375 37.8917 131.058 38.275C130.758 38.6417 130.283 38.825 129.633 38.825H121.758V44H128.633C128.633 44.8 128.483 45.3917 128.183 45.775C127.883 46.1417 127.408 46.325 126.758 46.325H121.758V51.675H130.158C130.792 51.675 131.258 51.8667 131.558 52.25C131.875 52.6167 132.033 53.2 132.033 54H120.433C120.05 54 119.725 53.8833 119.458 53.65C119.192 53.4 119.058 53.1 119.058 52.75V37.75ZM136.982 38.5C136.982 37.8167 137.207 37.275 137.657 36.875C138.107 36.475 138.715 36.275 139.482 36.275L148.782 50.5L148.982 50.35L148.157 48.975V36.275C149.024 36.275 149.682 36.4583 150.132 36.825C150.582 37.175 150.807 37.7 150.807 38.4V52.225C150.807 52.7917 150.59 53.2667 150.157 53.65C149.74 54.0333 149.224 54.225 148.607 54.225L139.007 39.525L138.807 39.7L139.632 41.075V52.1C139.632 53.5167 138.749 54.225 136.982 54.225V38.5Z" fill="url(#paint1_linear_22_17)"/>
<defs>
<linearGradient id="paint0_linear_22_17" x1="99.2319" y1="13.3333" x2="96.2889" y2="34.6253" gradientUnits="userSpaceOnUse">
<stop stop-color="#046425"/>
<stop offset="1" stop-color="#A3D921"/>
</linearGradient>
<linearGradient id="paint1_linear_22_17" x1="107.667" y1="37.1667" x2="106.408" y2="60.9687" gradientUnits="userSpaceOnUse">
<stop stop-color="#046425"/>
<stop offset="1" stop-color="#A3D921"/>
</linearGradient>
</defs>
</svg>