<svg width="60" height="60" viewBox="0 0 60 60" fill="none" xmlns="http://www.w3.org/2000/svg">
<path d="M30 10H12.5C10.5109 10 8.60322 10.7902 7.1967 12.1967C5.79018 13.6032 5 15.5109 5 17.5V37.5C5 39.4891 5.79018 41.3968 7.1967 42.8033C8.60322 44.2098 10.5109 45 12.5 45L10 47.5V50H12.5L17.5 44.925L22.5 45V32.5H10V15H32.5V20H37.5V17.5C37.5 15.5109 36.7098 13.6032 35.3033 12.1967C33.8968 10.7902 31.9891 10 30 10ZM12.5 35C13.163 35 13.7989 35.2634 14.2678 35.7322C14.7366 36.2011 15 36.837 15 37.5C15 38.163 14.7366 38.7989 14.2678 39.2678C13.7989 39.7366 13.163 40 12.5 40C11.837 40 11.2011 39.7366 10.7322 39.2678C10.2634 38.7989 10 38.163 10 37.5C10 36.837 10.2634 36.2011 10.7322 35.7322C11.2011 35.2634 11.837 35 12.5 35ZM51.425 24.15C51.075 23.15 50.125 22.5 49 22.5H31.025C29.875 22.5 28.95 23.15 28.575 24.15L25 34.425V48.2C25 49.15 25.8 50 26.75 50H28.3C29.25 50 30 49.05 30 48.1V45H50V48.1C50 49.05 50.775 50 51.725 50H53.25C54.2 50 55 49.15 55 48.2V34.425L51.425 24.15ZM31.025 25H49L51.575 32.5H28.45L31.025 25ZM30 40C29.337 40 28.7011 39.7366 28.2322 39.2678C27.7634 38.7989 27.5 38.163 27.5 37.5C27.5 36.837 27.7634 36.2011 28.2322 35.7322C28.7011 35.2634 29.337 35 30 35C30.663 35 31.2989 35.2634 31.7678 35.7322C32.2366 36.2011 32.5 36.837 32.5 37.5C32.5 38.163 32.2366 38.7989 31.7678 39.2678C31.2989 39.7366 30.663 40 30 40ZM50 40C49.337 40 48.7011 39.7366 48.2322 39.2678C47.7634 38.7989 47.5 38.163 47.5 37.5C47.5 36.837 47.7634 36.2011 48.2322 35.7322C48.7011 35.2634 49.337 35 50 35C50.663 35 51.2989 35.2634 51.7678 35.7322C52.2366 36.2011 52.5 36.837 52.5 37.5C52.5 38.163 52.2366 38.7989 51.7678 39.2678C51.2989 39.7366 50.663 40 50 40Z" fill="#000"/>
</svg>
