<svg width="60" height="60" viewBox="0 0 60 60" fill="none" xmlns="http://www.w3.org/2000/svg">
<path fill-rule="evenodd" clip-rule="evenodd" d="M37.14 30.2363C37.6038 30.08 38.0938 29.9988 38.5875 29.9988H39.9775C40.0203 29.9988 40.0627 29.9901 40.1019 29.9732C40.1412 29.9563 40.1766 29.9314 40.2059 29.9003C40.2352 29.8691 40.2578 29.8322 40.2722 29.792C40.2867 29.7517 40.2928 29.7089 40.29 29.6663L39.7275 21.5188C39.7188 21.3614 39.6485 21.2137 39.5318 21.1078C39.415 21.0018 39.2613 20.946 39.1038 20.9525C33.7713 21.2225 29.4863 25.185 29.1575 30.62L29.1138 31.3438C29.108 31.4412 29.125 31.5387 29.1637 31.6284C29.2023 31.7181 29.2615 31.7975 29.3363 31.8602C29.4112 31.9229 29.4997 31.9672 29.5948 31.9895C29.6899 32.0118 29.7888 32.0116 29.8838 31.9888L37.14 30.2363ZM37.375 23.745C34.775 24.46 32.7625 26.3688 31.9863 28.9088L36.4588 27.8288C36.8438 27.7063 37.2388 27.6175 37.6388 27.5638L37.375 23.745Z" fill="#000"/>
<path fill-rule="evenodd" clip-rule="evenodd" d="M13.125 7.5C12.375 7.49976 11.6376 7.69233 10.9834 8.05921C10.3293 8.42609 9.78047 8.95498 9.38963 9.59508C8.99879 10.2352 8.77906 10.965 8.75155 11.7145C8.72403 12.464 8.88965 13.208 9.23251 13.875L7.78251 30.47C7.77988 30.4966 7.77821 30.5233 7.77751 30.55L7.67501 33.45C7.62103 34.9776 8.14316 36.4698 9.13785 37.6305C10.1325 38.7912 11.5271 39.5357 13.045 39.7163L13.27 39.7438C14.4546 39.885 15.6546 39.6754 16.7211 39.141C17.7877 38.6066 18.674 37.7709 19.27 36.7375L22.0138 31.98C22.6325 30.9087 21.6663 29.6188 20.4638 29.9113L18.3625 30.4212L15.1775 30.215L13.845 30.0563L15.96 16.0288C18.2288 16.7313 20.4688 17.4763 22.4013 18.5313C24.27 19.5525 25.7613 20.8175 26.6725 22.5288C25.0163 24.8408 24.0545 27.5776 23.9 30.4175L23.5113 37.43C23.5017 37.5997 23.5269 37.7696 23.5853 37.9293C23.6437 38.089 23.734 38.235 23.8508 38.3586C23.9676 38.4821 24.1083 38.5806 24.2644 38.6479C24.4206 38.7152 24.5888 38.7499 24.7588 38.75H51.8213C51.9076 38.7499 51.993 38.732 52.0721 38.6973C52.1512 38.6626 52.2222 38.6118 52.2807 38.5483C52.3392 38.4847 52.3839 38.4098 52.4119 38.3281C52.44 38.2464 52.4508 38.1598 52.4438 38.0737L51.7063 29.2188C51.6671 28.7501 51.4532 28.3133 51.1071 27.9949C50.7609 27.6766 50.3078 27.4999 49.8375 27.5H45.055C45.0398 27.5001 45.0251 27.4948 45.0136 27.4849C45.0021 27.475 44.9946 27.4613 44.9925 27.4463L43.7375 18.4063C43.6545 17.8085 43.3581 17.2609 42.903 16.8646C42.4479 16.4683 41.8647 16.25 41.2613 16.25H38.8775C36.6781 16.2474 34.5052 16.7301 32.5138 17.6638C28.8713 12.1538 22.4988 10.6013 16.7025 9.35625C16.299 8.78241 15.7632 8.31416 15.1405 7.99107C14.5178 7.66797 13.8265 7.49954 13.125 7.5ZM11.25 11.875C11.25 11.3777 11.4476 10.9008 11.7992 10.5492C12.1508 10.1975 12.6277 10 13.125 10C13.6223 10 14.0992 10.1975 14.4508 10.5492C14.8025 10.9008 15 11.3777 15 11.875C15 12.3723 14.8025 12.8492 14.4508 13.2008C14.0992 13.5525 13.6223 13.75 13.125 13.75C12.6277 13.75 12.1508 13.5525 11.7992 13.2008C11.4476 12.8492 11.25 12.3723 11.25 11.875ZM13.7213 16.21C12.8808 16.323 12.0256 16.1919 11.2575 15.8325L9.96376 30.6288L9.86126 33.5275C9.82681 34.5067 10.1616 35.4631 10.7992 36.207C11.4369 36.9509 12.3308 37.428 13.3038 37.5437L13.5288 37.5712C14.288 37.6619 15.0572 37.5277 15.7409 37.1853C16.4246 36.8428 16.9928 36.3073 17.375 35.645L19.2075 32.4675L18.7625 32.575C18.625 32.6087 18.4825 32.6213 18.34 32.6125L14.9775 32.3938L12.7863 32.1325C12.5991 32.1103 12.4184 32.0508 12.2547 31.9574C12.0911 31.864 11.9479 31.7386 11.8336 31.5888C11.7193 31.439 11.6363 31.2677 11.5896 31.0852C11.5428 30.9026 11.5331 30.7126 11.5613 30.5262L13.7213 16.21ZM23.6 16.3375C21.5588 15.2225 19.2488 14.4363 17.075 13.7575C17.3175 13.2488 17.4663 12.6863 17.495 12.0925C22.8125 13.295 27.54 14.79 30.3425 18.9138C29.6472 19.3955 28.9936 19.9349 28.3888 20.5263C27.18 18.69 25.4688 17.3588 23.6 16.3388V16.3375ZM26.3963 30.5562C26.5736 27.366 27.9659 24.3647 30.2871 22.169C32.6084 19.9733 35.6823 18.7499 38.8775 18.75H41.2613L42.5163 27.79C42.6013 28.4026 42.9051 28.9637 43.3714 29.3699C43.8378 29.776 44.4353 29.9998 45.0538 30H49.2625L49.7838 36.25H26.08L26.3963 30.5562Z" fill="#000"/>
<path d="M29.375 48.75C29.8723 48.75 30.3492 48.5525 30.7008 48.2008C31.0525 47.8492 31.25 47.3723 31.25 46.875C31.25 46.3777 31.0525 45.9008 30.7008 45.5492C30.3492 45.1975 29.8723 45 29.375 45C28.8777 45 28.4008 45.1975 28.0492 45.5492C27.6975 45.9008 27.5 46.3777 27.5 46.875C27.5 47.3723 27.6975 47.8492 28.0492 48.2008C28.4008 48.5525 28.8777 48.75 29.375 48.75ZM38.75 46.875C38.75 47.3723 38.5525 47.8492 38.2008 48.2008C37.8492 48.5525 37.3723 48.75 36.875 48.75C36.3777 48.75 35.9008 48.5525 35.5492 48.2008C35.1975 47.8492 35 47.3723 35 46.875C35 46.3777 35.1975 45.9008 35.5492 45.5492C35.9008 45.1975 36.3777 45 36.875 45C37.3723 45 37.8492 45.1975 38.2008 45.5492C38.5525 45.9008 38.75 46.3777 38.75 46.875ZM44.375 48.75C44.8723 48.75 45.3492 48.5525 45.7008 48.2008C46.0525 47.8492 46.25 47.3723 46.25 46.875C46.25 46.3777 46.0525 45.9008 45.7008 45.5492C45.3492 45.1975 44.8723 45 44.375 45C43.8777 45 43.4008 45.1975 43.0492 45.5492C42.6975 45.9008 42.5 46.3777 42.5 46.875C42.5 47.3723 42.6975 47.8492 43.0492 48.2008C43.4008 48.5525 43.8777 48.75 44.375 48.75Z" fill="#000"/>
<path fill-rule="evenodd" clip-rule="evenodd" d="M26.875 41.25C26.1363 41.25 25.4049 41.3955 24.7224 41.6782C24.0399 41.9609 23.4199 42.3752 22.8975 42.8975C22.3752 43.4199 21.9609 44.0399 21.6782 44.7224C21.3955 45.4049 21.25 46.1363 21.25 46.875C21.25 47.6137 21.3955 48.3451 21.6782 49.0276C21.9609 49.7101 22.3752 50.3301 22.8975 50.8525C23.4199 51.3748 24.0399 51.7891 24.7224 52.0718C25.4049 52.3545 26.1363 52.5 26.875 52.5H46.875C47.6137 52.5 48.3451 52.3545 49.0276 52.0718C49.7101 51.7891 50.3301 51.3748 50.8525 50.8525C51.3748 50.3301 51.7891 49.7101 52.0718 49.0276C52.3545 48.3451 52.5 47.6137 52.5 46.875C52.5 46.1363 52.3545 45.4049 52.0718 44.7224C51.7891 44.0399 51.3748 43.4199 50.8525 42.8975C50.3301 42.3752 49.7101 41.9609 49.0276 41.6782C48.3451 41.3955 47.6137 41.25 46.875 41.25H26.875ZM46.875 43.75H26.875C26.0462 43.75 25.2513 44.0792 24.6653 44.6653C24.0792 45.2513 23.75 46.0462 23.75 46.875C23.75 47.7038 24.0792 48.4987 24.6653 49.0847C25.2513 49.6708 26.0462 50 26.875 50H46.875C47.7038 50 48.4987 49.6708 49.0847 49.0847C49.6708 48.4987 50 47.7038 50 46.875C50 46.0462 49.6708 45.2513 49.0847 44.6653C48.4987 44.0792 47.7038 43.75 46.875 43.75Z" fill="#000"/>
</svg>
