<svg width="60" height="60" viewBox="0 0 60 60" fill="none" xmlns="http://www.w3.org/2000/svg">
<path d="M0 8.74856C0 3.91936 3.91936 0 8.74856 0H36.244C41.0782 0 44.9926 3.91936 44.9926 8.74856V9.99836H46.9023C48.2956 9.9984 49.6614 10.3867 50.8464 11.1196C52.0314 11.8525 52.9888 12.901 53.6112 14.1477L59.2003 25.3208C59.7204 26.3625 59.9908 27.511 59.9901 28.6753V44.9926C59.9901 46.9814 59.2001 48.8887 57.7938 50.295C56.3875 51.7013 54.4802 52.4914 52.4914 52.4914H49.6768C49.1244 54.6398 47.8732 56.5436 46.1202 57.9029C44.3671 59.2623 42.2118 60 39.9934 60C37.7751 60 35.6197 59.2623 33.8667 57.9029C32.1136 56.5436 30.8624 54.6398 30.31 52.4914H24.6809C24.1108 54.7047 22.7997 56.6559 20.9658 58.0199C19.1319 59.384 16.886 60.0785 14.6023 59.9879C12.3185 59.8973 10.1347 59.027 8.41467 57.522C6.69462 56.0169 5.54212 53.968 5.14915 51.7165C3.61462 51.0238 2.31256 49.903 1.39921 48.4887C0.485858 47.0743 2.26193e-05 45.4264 0 43.7428V8.74856ZM30.31 47.4922C30.8643 45.3456 32.1163 43.444 33.8692 42.0866C35.6221 40.7292 37.7764 39.9929 39.9934 39.9934V8.74856C39.9934 7.75416 39.5984 6.80049 38.8953 6.09735C38.1921 5.3942 37.2384 4.99918 36.244 4.99918H8.74856C7.75416 4.99918 6.80049 5.3942 6.09735 6.09735C5.3942 6.80049 4.99918 7.75416 4.99918 8.74856V43.7428C4.99918 44.6177 5.29913 45.4225 5.79905 46.0624C6.61792 44.1404 8.01832 42.5231 9.80352 41.4378C11.5887 40.3526 13.6691 39.8538 15.7523 40.0115C17.8356 40.1693 19.8171 40.9756 21.4185 42.3174C23.0199 43.6591 24.1608 45.4688 24.6809 47.4922H30.31ZM44.9926 41.3332C46.1434 41.9971 47.1504 42.8837 47.9547 43.9412C48.759 44.9987 49.3444 46.2059 49.6768 47.4922H52.4914C53.1543 47.4922 53.7901 47.2288 54.2588 46.7601C54.7276 46.2913 54.991 45.6555 54.991 44.9926V29.9951H44.9926V41.3332ZM44.9926 24.9959H53.4462L49.1369 16.3773C48.9291 15.9626 48.6101 15.614 48.2154 15.3703C47.8208 15.1266 47.3661 14.9975 46.9023 14.9975H44.9926V24.9959ZM14.9975 44.9926C13.6717 44.9926 12.4001 45.5193 11.4626 46.4568C10.5251 47.3944 9.99836 48.6659 9.99836 49.9918C9.99836 51.3176 10.5251 52.5892 11.4626 53.5267C12.4001 54.4643 13.6717 54.991 14.9975 54.991C16.3234 54.991 17.595 54.4643 18.5325 53.5267C19.47 52.5892 19.9967 51.3176 19.9967 49.9918C19.9967 48.6659 19.47 47.3944 18.5325 46.4568C17.595 45.5193 16.3234 44.9926 14.9975 44.9926ZM34.9942 49.9918C34.9942 51.3176 35.5209 52.5892 36.4585 53.5267C37.396 54.4643 38.6676 54.991 39.9934 54.991C41.3193 54.991 42.5908 54.4643 43.5284 53.5267C44.4659 52.5892 44.9926 51.3176 44.9926 49.9918C44.9926 48.6659 44.4659 47.3944 43.5284 46.4568C42.5908 45.5193 41.3193 44.9926 39.9934 44.9926C38.6676 44.9926 37.396 45.5193 36.4585 46.4568C35.5209 47.3944 34.9942 48.6659 34.9942 49.9918Z" fill="#000"/>
</svg>

