<svg width="58" height="49" viewBox="0 0 58 49" fill="none" xmlns="http://www.w3.org/2000/svg">
<path d="M9.65186 18.0687L9.64061 18.0781C9.30877 18.4066 9.04568 18.7979 8.8667 19.2291C8.68772 19.6604 8.59644 20.123 8.59819 20.5899C8.59993 21.0568 8.69467 21.5187 8.87686 21.9486C9.05906 22.3785 9.32507 22.7678 9.65936 23.0937C10.2268 23.6431 10.9591 23.9906 11.7434 24.0828C12.5278 24.175 13.3207 24.0066 14 23.6038V29C15.5637 29.525 16.8894 30.5675 17.75 31.94V23.0375C17.75 21.9875 18.6125 21.125 19.6625 21.125H27.0875C28.1375 21.125 29 21.9875 29 23.0375V36.1737C28.8193 36.1411 28.6361 36.1248 28.4525 36.125H21.3875L21.425 36.3313C21.4494 36.44 21.4681 36.5562 21.4737 36.68L21.4887 36.8112C21.5 36.9481 21.5 37.0737 21.5 37.1225V37.1319C21.5 37.4281 21.4737 37.7188 21.425 38H36.575C36.525 37.7133 36.4999 37.4229 36.5 37.1319V37.1225C36.5 37.0756 36.5 36.9481 36.5112 36.8131L36.5262 36.68C36.5313 36.5625 36.5476 36.4457 36.575 36.3313C36.8844 34.4206 38.2662 32.8813 40.0512 32.2775C40.6359 31.2287 41.4766 30.3449 42.4949 29.7085C43.5132 29.0722 44.676 28.7039 45.875 28.6381V23.6169C46.3006 23.8531 46.7637 23.9919 47.2344 24.0406C47.4987 23.8156 47.7969 23.6262 48.1212 23.4781C48.7814 22.3878 49.8409 21.598 51.0744 21.2769C51.2097 20.6988 51.1927 20.0955 51.0251 19.526C50.8575 18.9564 50.545 18.4401 50.1181 18.0275L50.1106 18.0219L34.6362 2.77813C34.6596 2.66415 34.7216 2.56175 34.8118 2.48828C34.9021 2.41482 35.0149 2.37479 35.1312 2.375H37.8312C38.0937 2.375 38.3187 2.6 38.3187 2.88125V4.83875L42.3744 0.843125C42.3744 0.824375 42.3931 0.824375 42.3931 0.824375C42.6066 0.617054 42.8924 0.501084 43.19 0.501084C43.4876 0.501084 43.7734 0.617054 43.9869 0.824375L55.7806 12.4494C56.2119 12.8806 56.2494 13.5931 55.7994 14.0244C55.5859 14.2317 55.3001 14.3477 55.0025 14.3477C54.7049 14.3477 54.4191 14.2317 54.2056 14.0244L53.3431 13.1731V21.2413C54.219 21.4379 55.0236 21.8727 55.6681 22.4975L55.6812 22.5106L55.6925 22.5219C56.3286 23.1566 56.7769 23.9548 56.988 24.8283C57.1991 25.7018 57.1648 26.6167 56.8887 27.4719L56.885 27.4887L56.8794 27.5056C56.7144 28.0006 56.4744 28.4619 56.1687 28.8725V43.625C56.1687 44.8682 55.6749 46.0605 54.7958 46.9396C53.9167 47.8186 52.7244 48.3125 51.4812 48.3125H6.49998C5.25678 48.3125 4.0645 47.8186 3.18542 46.9396C2.30634 46.0605 1.81248 44.8682 1.81248 43.625V28.8463C1.51382 28.4379 1.28041 27.9856 1.12061 27.5056L1.11498 27.4887L1.11123 27.4719C0.835214 26.6167 0.800856 25.7018 1.01195 24.8283C1.22305 23.9548 1.67139 23.1566 2.30748 22.5219L2.31873 22.5087L2.32998 22.4975C2.96728 21.8804 3.76071 21.4487 4.62498 21.2488V13.1787L3.72873 14.06C3.51528 14.2673 3.22943 14.3833 2.93186 14.3833C2.63429 14.3833 2.34844 14.2673 2.13498 14.06C1.92796 13.8502 1.81189 13.5673 1.81189 13.2725C1.81189 12.9777 1.92796 12.6948 2.13498 12.485L6.49998 8.18375V2.88125C6.49998 2.6 6.72498 2.375 7.00623 2.375H9.70623C9.96873 2.375 10.1937 2.6 10.1937 2.88125V4.5425L13.9494 0.843125C13.9494 0.824375 13.9681 0.824375 13.9681 0.824375C14.1816 0.617054 14.4674 0.501084 14.765 0.501084C15.0626 0.501084 15.3484 0.617054 15.5619 0.824375L21.3631 6.54312L9.65186 18.0687ZM4.62498 23.2063C4.25552 23.352 3.91845 23.5693 3.63311 23.8456C3.30151 24.1752 3.05175 24.578 2.90387 25.0215C2.75598 25.465 2.71408 25.9371 2.78153 26.3997C2.84898 26.8624 3.0239 27.3028 3.29226 27.6856C3.56062 28.0685 3.91496 28.3832 4.32686 28.6044V28.625H9.36873C9.89373 28.2688 10.2519 27.665 10.2519 26.9881C10.2519 26.9131 10.2519 26.8569 10.2331 26.8006V26.7444C10.1906 26.3724 10.0423 26.0204 9.80561 25.7302C9.56896 25.44 9.25398 25.2239 8.89811 25.1075C8.7917 25.0778 8.693 25.0254 8.60884 24.9539C8.52467 24.8823 8.45703 24.7934 8.41061 24.6931C8.08202 24.0148 7.51 23.4852 6.80847 23.2096C6.10694 22.9341 5.32736 22.9329 4.62498 23.2063ZM54.6425 24.1625C54.558 24.0506 54.4659 23.9448 54.3669 23.8456C53.8063 23.3052 53.0586 23.0022 52.28 23C51.0969 23 50.0806 23.6956 49.5931 24.6931C49.4994 24.8994 49.3119 25.0494 49.1037 25.1056C48.7477 25.2224 48.4327 25.4388 48.196 25.7293C47.9594 26.0198 47.8111 26.3721 47.7687 26.7444V26.8006C47.75 26.8569 47.75 26.9131 47.75 26.9881C47.75 27.665 48.1062 28.2669 48.6331 28.625H53.6712V28.6063C54.1688 28.3433 54.5812 27.9441 54.8601 27.4553C55.139 26.9665 55.273 26.4084 55.2462 25.8463C55.2212 25.2366 55.0106 24.6491 54.6425 24.1625ZM45.875 30.5188C44.9838 30.5845 44.1243 30.8775 43.3785 31.3699C42.6327 31.8623 42.0256 32.5375 41.615 33.3313C41.528 33.5031 41.4049 33.654 41.2541 33.7738C41.1032 33.8935 40.9283 33.9792 40.7412 34.025C40.135 34.2071 39.5935 34.5587 39.1805 35.0384C38.7676 35.5181 38.5004 36.1059 38.4106 36.7325C38.3919 36.7681 38.3919 36.8019 38.4106 36.8188C38.375 36.9069 38.375 37.0269 38.375 37.1319C38.375 37.4319 38.4181 37.7225 38.4969 38C38.72 38.7819 39.2375 39.4513 39.9219 39.875H48.7512C49.3316 39.5918 49.8495 39.1954 50.2745 38.7092C50.6995 38.223 51.0231 37.6568 51.2262 37.0438C51.4104 36.5379 51.5031 36.0033 51.5 35.465C51.5 34.0944 50.9187 32.8269 49.9531 31.9231C49.4072 31.4201 48.7629 31.0357 48.0611 30.794C47.3592 30.5523 46.6149 30.4586 45.875 30.5188ZM19.5031 38C19.5819 37.7225 19.625 37.4319 19.625 37.1319C19.625 37.0288 19.625 36.9069 19.5875 36.8188C19.6062 36.8019 19.6062 36.7681 19.5875 36.7325C19.5609 36.5258 19.5138 36.3223 19.4469 36.125C19.274 35.627 18.9856 35.177 18.6053 34.8119C18.2249 34.4469 17.7635 34.1772 17.2587 34.025C17.0716 33.9793 16.8966 33.8937 16.7458 33.7739C16.595 33.6542 16.4719 33.5031 16.385 33.3313C15.8667 32.3182 15.0283 31.5048 14 31.0175C13.0309 30.5565 11.946 30.3962 10.885 30.5573C9.82395 30.7183 8.83547 31.1934 8.04686 31.9212C7.55918 32.3746 7.17013 32.9236 6.90399 33.5339C6.63785 34.1443 6.50032 34.8029 6.49998 35.4688C6.49998 36.0219 6.59186 36.5431 6.77373 37.0475C6.97689 37.6603 7.30049 38.2262 7.72553 38.7121C8.15056 39.198 8.66844 39.594 9.24873 39.8769H18.0781C18.7625 39.4531 19.28 38.7819 19.5031 38ZM26.9 29.45C26.9 29.2312 26.8131 29.0214 26.6583 28.8666C26.5036 28.7119 26.2938 28.625 26.075 28.625C25.8562 28.625 25.6463 28.7119 25.4916 28.8666C25.3369 29.0214 25.25 29.2312 25.25 29.45C25.25 29.6688 25.3369 29.8786 25.4916 30.0334C25.6463 30.1881 25.8562 30.275 26.075 30.275C26.2938 30.275 26.5036 30.1881 26.6583 30.0334C26.8131 29.8786 26.9 29.6688 26.9 29.45Z" fill="#000"/>
<path d="M10.9681 19.4037C10.3119 20.06 10.3119 21.11 10.9681 21.7475C11.6244 22.385 12.6931 22.4037 13.3494 21.7475L29.9056 5.435L46.4056 21.6913C46.7219 22.0061 47.15 22.1829 47.5963 22.1829C48.0425 22.1829 48.4706 22.0061 48.7869 21.6913C49.4431 21.035 49.4619 20.0038 48.8056 19.3663L31.1056 1.92875C30.7894 1.61388 30.3613 1.43711 29.915 1.43711C29.4687 1.43711 29.0406 1.61388 28.7244 1.92875C28.7244 1.92875 28.7056 1.92875 28.7056 1.9475L10.9681 19.4037Z" fill="#000"/>
<path d="M39.1794 28.625H33.8187C33.5348 28.625 33.2625 28.5122 33.0617 28.3114C32.8609 28.1106 32.7481 27.8383 32.7481 27.5544V22.1937C32.7481 21.5937 33.2356 21.1231 33.8187 21.1231H39.1775C39.7775 21.1231 40.2481 21.6106 40.2481 22.1937V27.5525C40.2481 28.1525 39.7794 28.6231 39.1775 28.6231L39.1794 28.625Z" fill="#000"/>
</svg>
